<svg width="25" height="25" viewBox="0 0 25 25" fill="none" xmlns="http://www.w3.org/2000/svg">
<path d="M11.9764 23.4985C18.3541 23.4985 23.5242 18.3284 23.5242 11.9507C23.5242 5.57307 18.3541 0.402954 11.9764 0.402954C5.59877 0.402954 0.42865 5.57307 0.42865 11.9507C0.42865 18.3284 5.59877 23.4985 11.9764 23.4985Z" fill="white"/>
<path d="M12.0021 24.0043C9.62833 24.0043 7.30784 23.3004 5.3341 21.9816C3.36036 20.6628 1.82201 18.7883 0.913599 16.5952C0.00518517 14.4021 -0.232497 11.9888 0.230608 9.66065C0.693713 7.33246 1.83681 5.19388 3.51534 3.51535C5.19387 1.83682 7.33244 0.693728 9.66063 0.230623C11.9888 -0.232482 14.402 0.00520043 16.5952 0.913614C18.7883 1.82203 20.6627 3.36037 21.9815 5.33411C23.3004 7.30786 24.0043 9.62835 24.0043 12.0021C24.0043 15.1853 22.7398 18.2381 20.4889 20.4889C18.2381 22.7398 15.1853 24.0043 12.0021 24.0043ZM12.0021 1.28595C9.88267 1.28595 7.8108 1.91444 6.04853 3.09195C4.28626 4.26946 2.91274 5.94311 2.10166 7.90124C1.29057 9.85937 1.07836 12.014 1.49184 14.0928C1.90533 16.1715 2.92595 18.081 4.42464 19.5796C5.92332 21.0783 7.83277 22.0989 9.91151 22.5124C11.9902 22.9259 14.1449 22.7137 16.103 21.9026C18.0612 21.0915 19.7348 19.718 20.9123 17.9557C22.0898 16.1935 22.7183 14.1216 22.7183 12.0021C22.7183 9.16004 21.5893 6.43433 19.5796 4.42465C17.57 2.41497 14.8442 1.28595 12.0021 1.28595Z" fill="#999999"/>
<path d="M10.6647 16.9059C10.4932 16.905 10.3286 16.8373 10.2061 16.7172L6.66974 13.1809C6.61007 13.121 6.5628 13.0498 6.53061 12.9716C6.49843 12.8934 6.48197 12.8096 6.48216 12.725C6.48236 12.6404 6.49922 12.5567 6.53177 12.4787C6.56432 12.4006 6.61193 12.3297 6.67188 12.27C6.73183 12.2104 6.80295 12.1631 6.88117 12.1309C6.95939 12.0987 7.04318 12.0822 7.12777 12.0824C7.21235 12.0826 7.29606 12.0995 7.37413 12.1321C7.4522 12.1646 7.52309 12.2122 7.58276 12.2722L10.639 15.3284L16.5072 8.81298C16.5619 8.7448 16.6299 8.6885 16.7071 8.6475C16.7843 8.6065 16.8691 8.58168 16.9562 8.57454C17.0433 8.5674 17.131 8.57809 17.2138 8.60598C17.2966 8.63386 17.3729 8.67834 17.438 8.7367C17.5031 8.79506 17.5556 8.86607 17.5923 8.9454C17.629 9.02473 17.6491 9.11071 17.6515 9.19808C17.6538 9.28546 17.6383 9.3724 17.6059 9.45358C17.5735 9.53477 17.5249 9.6085 17.4631 9.67027L11.1448 16.6915C11.0865 16.7571 11.0153 16.81 10.9357 16.8469C10.856 16.8838 10.7696 16.9039 10.6819 16.9059H10.6647Z" fill="#999999"/>
</svg>
